Coordinates
version=1
nRows=19
nColumns=24
inDegrees=yes

Units are S.I. units (second, meters, Newtons, ...)
Angles are in degrees.

endheader
time	pelvis_tilt	pelvis_list	pelvis_rotation	pelvis_tx	pelvis_ty	pelvis_tz	hip_flexion_r	hip_adduction_r	hip_rotation_r	knee_angle_r	ankle_angle_r	subtalar_angle_r	mtp_angle_r	hip_flexion_l	hip_adduction_l	hip_rotation_l	knee_angle_l	ankle_angle_l	subtalar_angle_l	mtp_angle_l	lumbar_extension	lumbar_bending	lumbar_rotation
      2.51500000	     25.71535034	     -4.08338614	     -1.43730008	     -0.29528108	      1.04136265	     -0.01480910	     -6.45023126	     -2.47633848	    -12.28584591	    -24.99202144	      6.96426187	     -6.69796028	     32.61233423	    -30.87359483	     -2.09977880	     -8.55582334	     -6.34921656	     13.98300092	     -0.74174938	      1.20233471	    -39.97131493	      0.91841881	      1.07796209
      2.52000000	     25.69223157	     -4.09167166	     -1.45252850	     -0.29065186	      1.04085718	     -0.01440636	     -6.47883195	     -2.32578830	    -12.27247791	    -23.42356255	      6.83039309	     -6.48298863	     32.31998846	    -31.28320813	     -2.09268449	     -8.56135748	     -6.09676658	     14.11896756	     -0.70224251	      1.20495163	    -39.95663753	      0.92493596	      1.10049004
      2.52500000	     25.64342428	     -4.09988969	     -1.49703102	     -0.28602246	      1.04027626	     -0.01394926	     -6.48279574	     -2.17514671	    -12.19948752	    -21.87171213	      6.82863475	     -6.10717237	     30.42053505	    -31.64780071	     -2.07712171	     -8.63162922	     -5.88922510	     14.30866697	     -0.59511714	      1.17783883	    -39.91548990	      0.91837877	      1.14030997
      2.53000000	     25.58989077	     -4.08842467	     -1.52114445	     -0.28137180	      1.03966221	     -0.01354500	     -6.50393322	     -2.04938688	    -12.18499360	    -20.28653352	      6.59680562	     -5.88535532	     30.34887759	    -32.02134853	     -2.04256173	     -8.54601765	     -5.63996104	     14.40415617	     -0.69752231	      1.18243732	    -39.86897707	      0.91077376	      1.17849157
      2.53500000	     25.59846089	     -4.05737509	     -1.52602053	     -0.27667685	      1.03907380	     -0.01310322	     -6.62638329	     -1.93544341	    -12.16949597	    -18.67440228	      6.42098510	     -5.69011999	     30.22081521	    -32.45696008	     -2.00499916	     -8.48826235	     -5.40326952	     14.51766761	     -0.68371968	      1.20396006	    -39.88252678	      0.88907160	      1.15963459
      2.54000000	     25.54229305	     -4.03243188	     -1.56603201	     -0.27200467	      1.03837573	     -0.01262251	     -6.66527565	     -1.82321626	    -12.13341144	    -17.09897067	      6.14675240	     -5.45077195	     30.10299383	    -32.80329451	     -1.95769298	     -8.44653421	     -5.20944417	     14.66864299	     -0.73165337	      1.22783354	    -39.83252716	      0.85870658	      1.19933523
      2.54500000	     25.55432945	     -3.99997934	     -1.56661301	     -0.26724600	      1.03771815	     -0.01213446	     -6.81912736	     -1.70816905	    -12.12137053	    -15.50292327	      5.93988683	     -5.25870439	     29.91287555	    -33.23617485	     -1.92541479	     -8.38497601	     -4.99170982	     14.78735034	     -0.71902904	      1.26288042	    -39.84554412	      0.83830685	      1.17655899
      2.55000000	     25.54137592	     -3.95657173	     -1.58434481	     -0.26249982	      1.03699667	     -0.01162122	     -6.93799702	     -1.61184568	    -12.10799749	    -13.95296997	      5.68850868	     -5.02956313	     29.69819069	    -33.62082860	     -1.87651459	     -8.32126853	     -4.81581991	     14.92446841	     -0.74126497	      1.30620486	    -39.83415466	      0.80115447	      1.18053765
      2.55500000	     25.51354176	     -3.90643089	     -1.60794002	     -0.25772049	      1.03621843	     -0.01109314	     -7.03705908	     -1.52692326	    -12.10507425	    -12.45670966	      5.42283289	     -4.80152787	     29.48541427	    -33.98811330	     -1.81883072	     -8.25093154	     -4.64380128	     15.06979483	     -0.78527905	      1.35244702	    -39.80599006	      0.75816544	      1.17326497
      2.56000000	     25.50207015	     -3.84725733	     -1.62068114	     -0.25293464	      1.03542838	     -0.01056257	     -7.15736714	     -1.45301300	    -12.12083373	    -11.00594957	      5.15988698	     -4.56578904	     29.26416193	    -34.35610694	     -1.76107858	     -8.16986800	     -4.50341841	     15.21604237	     -0.82408794	      1.40589299	    -39.79494317	      0.71324739	      1.16439938
      2.56500000	     25.49166866	     -3.78719113	     -1.62945637	     -0.24812781	      1.03460714	     -0.01000857	     -7.27240273	     -1.38183320	    -12.15570278	     -9.62515253	      4.90364133	     -4.32022098	     29.03575981	    -34.71509764	     -1.70801688	     -8.08787301	     -4.38346978	     15.37273697	     -0.85814860	      1.46779022	    -39.78388213	      0.66926281	      1.14951334
      2.57000000	     25.46909516	     -3.71251126	     -1.63815568	     -0.24330344	      1.03375081	     -0.00944602	     -7.35945302	     -1.33152788	    -12.20911432	     -8.33429126	      4.65191516	     -4.06898174	     28.81647405	    -35.04771937	     -1.64443307	     -7.99621532	     -4.28719289	     15.53830805	     -0.90457192	      1.53379192	    -39.75919610	      0.61508631	      1.12054576
      2.57500000	     25.46170826	     -3.64350390	     -1.62608917	     -0.23846048	      1.03289545	     -0.00887800	     -7.46040148	     -1.27351440	    -12.29116898	     -7.12031817	      4.43760232	     -3.80149781	     28.57659265	    -35.37787401	     -1.60225221	     -7.90032527	     -4.22731723	     15.70565239	     -0.92843422	      1.61595402	    -39.74966975	      0.57616179	      1.09504171
      2.58000000	     25.46185895	     -3.57604219	     -1.61434265	     -0.23360400	      1.03201634	     -0.00830395	     -7.55045027	     -1.21925609	    -12.38653523	     -6.01053869	      4.23311537	     -3.53684385	     28.35037463	    -35.70700197	     -1.56234040	     -7.81347985	     -4.18740081	     15.88562164	     -0.95127267	      1.70499793	    -39.74862710	      0.54162390	      1.06196943
      2.58500000	     25.44255341	     -3.51157964	     -1.59489267	     -0.22871022	      1.03111154	     -0.00772688	     -7.59886660	     -1.16523455	    -12.50972031	     -5.01704413	      4.04083309	     -3.26979543	     28.15042107	    -36.00474496	     -1.53346379	     -7.73074564	     -4.16844165	     16.08486907	     -0.96678670	      1.79948236	    -39.72388718	      0.51677214	      1.01909968
      2.59000000	     25.45103253	     -3.44890867	     -1.55358069	     -0.22382204	      1.03022899	     -0.00714973	     -7.66401435	     -1.10970431	    -12.66079406	     -4.12905045	      3.89398345	     -2.99806897	     27.95353421	    -36.30913205	     -1.52286520	     -7.64208480	     -4.19190303	     16.28143742	     -0.96424283	      1.91075646	    -39.73156684	      0.50415667	      0.97400257
      2.59500000	     25.45207814	     -3.39345438	     -1.51059297	     -0.21891252	      1.02933565	     -0.00656887	     -7.69547772	     -1.05134958	    -12.82930421	     -3.36884771	      3.74775118	     -2.74212869	     27.78176106	    -36.58904159	     -1.52292630	     -7.56950232	     -4.25057164	     16.50088034	     -0.95143928	      2.03010825	    -39.72846230	      0.50291946	      0.94239253
      2.60000000	     25.47195261	     -3.34326344	     -1.45826842	     -0.21401267	      1.02844659	     -0.00597344	     -7.72526931	     -0.99104680	    -12.99762679	     -2.73371617	      3.64287983	     -2.50474999	     27.63835882	    -36.87328812	     -1.53746235	     -7.50040319	     -4.33915910	     16.72916428	     -0.91988934	      2.15668665	    -39.74986214	      0.50954184	      0.90337817
      2.60500000	     25.50479879	     -3.30651492	     -1.37433906	     -0.20905567	      1.02758220	     -0.00539476	     -7.76064371	     -0.91660737	    -13.19934503	     -2.21409404	      3.63654230	     -2.21026363	     27.43208123	    -37.16217651	     -1.58757781	     -7.44149134	     -4.44583787	     16.91874031	     -0.84223710	      2.37496663	    -39.77972669	      0.54749441	      0.84877058
